squats_1_grf
version=1
nRows=27
nColumns=19
inDegrees=no
endheader
time	ground_force_left_vx	ground_force_left_vy	ground_force_left_vz	ground_force_left_px	ground_force_left_py	ground_force_left_pz	ground_force_left_mx	ground_force_left_my	ground_force_left_mz	ground_force_right_vx	ground_force_right_vy	ground_force_right_vz	ground_force_right_px	ground_force_right_py	ground_force_right_pz	ground_force_right_mx	ground_force_right_my	ground_force_right_mz
     25.64500000	      6.42039106	    564.90598004	    118.36998741	     -2.31918528	      0.00979159	      2.16932442	     -0.01034003	      5.27360053	     -0.01318726	     -2.57190592	    594.21621107	   -122.06982116	     -2.30750600	      0.01026724	      2.75753845	      0.00185395	     -1.50217194	     -0.00448869
     25.64600000	      6.27532469	    564.88844419	    118.36642187	     -2.31907637	      0.00979179	      2.16932037	     -0.01036260	      5.28511534	     -0.01321605	     -2.70128214	    594.22973995	   -122.06046562	     -2.30738231	      0.01026743	      2.75752627	      0.00186030	     -1.50731955	     -0.00450407
     25.64700000	      6.12567689	    564.84057751	    118.35844608	     -2.31896888	      0.00979199	      2.16931562	     -0.01038523	      5.29665541	     -0.01324491	     -2.83868579	    594.24413395	   -122.04998428	     -2.30725754	      0.01026762	      2.75751493	      0.00186713	     -1.51285532	     -0.00452061
     25.64800000	      5.97266011	    564.76289537	    118.34617860	     -2.31886339	      0.00979218	      2.16931019	     -0.01040784	      5.30818558	     -0.01327374	     -2.98328448	    594.25860253	   -122.03823476	     -2.30713208	      0.01026781	      2.75750448	      0.00187448	     -1.51880560	     -0.00453839
     25.64900000	      5.81755063	    564.65610763	    118.32977480	     -2.31876046	      0.00979237	      2.16930411	     -0.01043035	      5.31966640	     -0.01330245	     -3.13418118	    594.27232316	   -122.02510394	     -2.30700633	      0.01026799	      2.75749495	      0.00188236	     -1.52519231	     -0.00455747
     25.65000000	      5.66167384	    564.52111780	    118.30942650	     -2.31866063	      0.00979255	      2.16929738	     -0.01045268	      5.33105471	     -0.01333093	     -3.29042210	    594.28445349	   -122.01050971	     -2.30688070	      0.01026817	      2.75748634	      0.00189080	     -1.53203256	     -0.00457791
     25.65100000	      5.50638851	    564.35901973	    118.28536110	     -2.31856439	      0.00979272	      2.16929005	     -0.01047473	      5.34230425	     -0.01335906	     -3.45100517	    594.29414430	   -121.99440218	     -2.30675556	      0.01026835	      2.75747870	      0.00189982	     -1.53933843	     -0.00459974
     25.65200000	      5.35307014	    564.17109166	    118.25784009	     -2.31847223	      0.00979288	      2.16928215	     -0.01049642	      5.35336637	     -0.01338672	     -3.61488902	    594.30055315	   -121.97676454	     -2.30663133	      0.01026852	      2.75747202	      0.00190942	     -1.54711678	     -0.00462299
     25.65300000	      5.20309389	    563.95878785	    118.22715714	     -2.31838457	      0.00979303	      2.16927371	     -0.01051765	      5.36419075	     -0.01341379	     -3.78100234	    594.30285811	   -121.95761329	     -2.30650838	      0.01026869	      2.75746632	      0.00191960	     -1.55536922	     -0.00464765
     25.65400000	      5.05781721	    563.72372760	    118.19363547	     -2.31830180	      0.00979317	      2.16926477	     -0.01053830	      5.37472622	     -0.01344013	     -3.94825355	    594.30027159	   -121.93699805	     -2.30638710	      0.01026886	      2.75746161	      0.00193037	     -1.56409209	     -0.00467371
     25.65500000	      4.91856257	    563.46768207	    118.15762484	     -2.31822425	      0.00979330	      2.16925535	     -0.01055829	      5.38492157	     -0.01346563	     -4.11554068	    594.29205363	   -121.91500084	     -2.30626785	      0.01026901	      2.75745788	      0.00194170	     -1.57327665	     -0.00470116
     25.65600000	      4.78660053	    563.19255877	    118.11949802	     -2.31815220	      0.00979342	      2.16924552	     -0.01057752	      5.39472639	     -0.01349015	     -4.28176127	    594.27752460	   -121.89173487	     -2.30615097	      0.01026917	      2.75745513	      0.00195359	     -1.58290930	     -0.00472994
     25.65700000	      4.66313346	    562.90038418	    118.07964683	     -2.31808588	      0.00979352	      2.16923529	     -0.01059588	      5.40409195	     -0.01351357	     -4.44582243	    594.25607691	   -121.86734293	     -2.30603682	      0.01026931	      2.75745335	      0.00196601	     -1.59297189	     -0.00476001
     25.65800000	      4.54928015	    562.59328464	    118.03847787	     -2.31802543	      0.00979361	      2.16922472	     -0.01061329	      5.41297199	     -0.01353577	     -4.60665069	    594.22718553	   -121.84199536	     -2.30592568	      0.01026945	      2.75745251	      0.00197893	     -1.60344211	     -0.00479129
     25.65900000	      4.44606149	    562.27346574	    117.99640800	     -2.31797097	      0.00979369	      2.16921383	     -0.01062967	      5.42132355	     -0.01355666	     -4.76320173	    594.19041721	   -121.81588774	     -2.30581785	      0.01026958	      2.75745261	      0.00199233	     -1.61429399	     -0.00482372
     25.66000000	      4.35438756	    561.94319064	    117.95385967	     -2.31792251	      0.00979376	      2.16920267	     -0.01064493	      5.42910770	     -0.01357612	     -4.91446992	    594.14543802	   -121.78923831	     -2.30571359	      0.01026971	      2.75745361	      0.00200615	     -1.62549831	     -0.00485720
     25.66100000	      4.27504613	    561.60475761	    117.91125622	     -2.31788003	      0.00979381	      2.16919128	     -0.01065901	      5.43629025	     -0.01359408	     -5.05949741	    594.09201931	   -121.76228520	     -2.30561313	      0.01026983	      2.75745549	      0.00202038	     -1.63702323	     -0.00489164
     25.66200000	      4.20869287	    561.26047713	    117.86901721	     -2.31784342	      0.00979386	      2.16917967	     -0.01067186	      5.44284230	     -0.01361047	     -5.19738295	    594.03004189	   -121.73528349	     -2.30551666	      0.01026994	      2.75745820	      0.00203496	     -1.64883473	     -0.00492693
     25.66300000	      4.15584321	    560.91264887	    117.82755389	     -2.31781252	      0.00979389	      2.16916788	     -0.01068343	      5.44874080	     -0.01362522	     -5.32729011	    593.95949827	   -121.70850216	     -2.30542436	      0.01027004	      2.75746172	      0.00204984	     -1.66089726	     -0.00496298
     25.66400000	      4.11686616	    560.56353905	    117.78726493	     -2.31778711	      0.00979391	      2.16915593	     -0.01069368	      5.45396889	     -0.01363829	     -5.44845497	    593.88049305	   -121.68222106	     -2.30533634	      0.01027014	      2.75746600	      0.00206499	     -1.67317424	     -0.00499966
     25.66500000	      4.09197987	    560.21535832	    117.74853241	     -2.31776691	      0.00979392	      2.16914385	     -0.01070259	      5.45851625	     -0.01364966	     -5.56019318	    593.79324142	   -121.65672775	     -2.30525271	      0.01027023	      2.75747100	      0.00208037	     -1.68562866	     -0.00503688
     25.66600000	      4.08124921	    559.87024061	    117.71171830	     -2.31775156	      0.00979392	      2.16913164	     -0.01071017	      5.46237926	     -0.01365932	     -5.66190632	    593.69806565	   -121.63231439	     -2.30517352	      0.01027031	      2.75747668	      0.00209591	     -1.69822359	     -0.00507451
     25.66700000	      4.08458513	    559.53022319	    117.67716119	     -2.31774068	      0.00979391	      2.16911931	     -0.01071641	      5.46556104	     -0.01366728	     -5.75308747	    593.59538987	   -121.60927466	     -2.30509879	      0.01027038	      2.75748298	      0.00211158	     -1.71092268	     -0.00511246
     25.66800000	      4.10174602	    559.19722810	    117.64517366	     -2.31773383	      0.00979389	      2.16910686	     -0.01072133	      5.46807140	     -0.01367355	     -5.83332591	    593.48573303	   -121.58790066	     -2.30502849	      0.01027045	      2.75748986	      0.00212734	     -1.72369065	     -0.00515061
     25.66900000	      4.13234075	    558.87304538	    117.61603998	     -2.31773051	      0.00979387	      2.16909430	     -0.01072497	      5.46992664	     -0.01367819	     -5.90231094	    593.36970018	   -121.56847982	     -2.30496257	      0.01027051	      2.75749728	      0.00214314	     -1.73649364	     -0.00518887
     25.67000000	      4.17583353	    558.55931790	    117.59001434	     -2.31773022	      0.00979383	      2.16908161	     -0.01072736	      5.47114928	     -0.01368125	     -5.95983466	    593.24797231	   -121.55129184	     -2.30490093	      0.01027056	      2.75750518	      0.00215895	     -1.74929961	     -0.00522713
     25.67100000	      4.23155031	    558.25752830	    117.56731951	     -2.31773239	      0.00979380	      2.16906878	     -0.01072858	      5.47176768	     -0.01368280	     -6.00579371	    593.12129480	   -121.53660571	     -2.30484343	      0.01027061	      2.75751352	      0.00217472	     -1.76207856	     -0.00526532
